<?xml version="1.0" standalone="no"?> <!DOCTYPE svg PUBLIC "-//W3C//DTD SVG 1.0//EN" "http://www.w3.org/TR/2001/REC-SVG-20010904/DTD/svg10.dtd" > <svg xmlns="http://www.w3.org/2000/svg" width="100%" height="100%">
<defs >
<font id="klavikamedium" horiz-adv-x="854" ><font-face
    font-family="Klavika Md"
    units-per-em="2048"
    panose-1="2 0 0 0 0 0 0 0 0 0"
    ascent="1536"
    descent="-512"
    alphabetic="0" />
<missing-glyph horiz-adv-x="1302" d="M174 0V1364H1128V0H174ZM1028 1262H332L1028 182V1262ZM274 1180V100H969L274 1180Z" />
<glyph unicode=" " glyph-name="space" horiz-adv-x="430" />
<glyph unicode="!" glyph-name="exclam" horiz-adv-x="581" d="M365 442H217L166 797V1405H416V797L365 442ZM164 0V287H418V0H164Z" />
<glyph unicode="&quot;" glyph-name="quotedbl" horiz-adv-x="792" d="M301 899H123V1405H301V899ZM670 899H492V1405H670V899Z" />
<glyph unicode="#" glyph-name="numbersign" horiz-adv-x="1429" d="M1292 334H1044L1028 0H844L860 334H543L524 0H340L356 334H102L113 506H365L381 831H123L133 1004H389L406 1323H592L575 1004H893L909 1323H1096L1077 1004H1323L1313 831H1069L1053 506H1303L1292
334ZM565 831L549 506H868L883 831H565Z" />
<glyph unicode="$" glyph-name="dollar" horiz-adv-x="1036" d="M610 -242H406V-16Q244 -7 102 47L147 252Q323 197 479 197Q544 197 582 205T642 234T669 285T676 367Q676 404 675 423T666 464T646 497T607 521T546 544T457 567Q377 586 324 604T230 648T168
700T132 770T115 858T111 973Q111 1152 188 1238T455 1339V1569H662V1339Q792 1332 903 1305L877 1090Q709 1124 543 1124Q433 1124 397 1095T360 967Q360 930 360 911T370 872T387 843T425 822T480 802T563 778Q630 759 679 743T767 707T831 671T875 628T903 580T918
522T925 453T926 369Q926 277 911 213T860 99T763 23T610 -14V-242Z" />
<glyph unicode="%" glyph-name="percent" horiz-adv-x="1796" d="M1243 1321L692 -20L535 43L1085 1384L1243 1321ZM741 930Q741 791 669 715T422 639T175 715T102 930V1094Q102 1232 175 1308T422 1384T668 1308T741 1094V930ZM545 1108Q545 1165 518 1189T422
1214T326 1190T299 1108V915Q299 859 326 834T422 809T518 834T545 915V1108ZM1683 270Q1683 132 1611 56T1364 -20T1117 56T1044 270V434Q1044 572 1117 648T1364 725T1610 649T1683 434V270ZM1487 449Q1487 505 1460 530T1364 555T1268 530T1241 449V256Q1241
199 1268 175T1364 150T1460 174T1487 256V449Z" />
<glyph unicode="&amp;" glyph-name="ampersand" horiz-adv-x="1341" d="M1249 575H1051V47Q846 -20 575 -20Q456 -20 371 3T237 72T166 177T143 315V430Q143 640 309 700Q168 770 168 948V1055Q168 1214 267 1299T600 1384Q819 1384 1006 1343L983 1139Q801 1171
590 1171Q496 1171 458 1142T420 1044V922Q420 786 561 786H1249V575ZM582 186Q714 186 813 205V575H582Q395 575 395 428V342Q395 259 434 223T582 186Z" />
<glyph unicode="&apos;" glyph-name="quotesingle" horiz-adv-x="423" d="M301 899H123V1405H301V899Z" />
<glyph unicode="(" glyph-name="parenleft" horiz-adv-x="686" d="M645 -209L461 -315Q143 94 143 623Q143 1150 461 1561L645 1454Q515 1242 455 1052T395 623Q395 383 455 193T645 -209Z" />
<glyph unicode=")" glyph-name="parenright" horiz-adv-x="686" d="M225 -315L41 -209Q171 3 231 193T291 623Q291 862 231 1052T41 1454L225 1561Q543 1150 543 623Q543 94 225 -315Z" />
<glyph unicode="*" glyph-name="asterisk" horiz-adv-x="1028" d="M248 768L397 999H123V1120H401L250 1360L350 1425L512 1176L674 1425L776 1360L621 1120H905V999H627L776 768L672 702L512 950L352 702L248 768Z" />
<glyph unicode="+" glyph-name="plus" horiz-adv-x="1081" d="M123 399V596H438V913H643V596H958V399H643V82H438V399H123Z" />
<glyph unicode="," glyph-name="comma" horiz-adv-x="561" d="M154 0V287H408V-16L248 -285L133 -221L248 0H154Z" />
<glyph unicode="-" glyph-name="hyphen" horiz-adv-x="761" d="M123 469V678H639V469H123Z" />
<glyph unicode="." glyph-name="period" horiz-adv-x="561" d="M154 0V287H408V0H154Z" />
<glyph unicode="/" glyph-name="slash" horiz-adv-x="940" d="M848 1384L338 -240H113L621 1384H848Z" />
<glyph unicode="0" glyph-name="zero" horiz-adv-x="1150" d="M1018 977V346Q1018 266 995 202T923 87T785 8T575 -20T366 8T229 87T156 202T133 346V977Q133 1057 156 1121T228 1236T366 1315T575 1343T784 1315T922 1236T995 1121T1018 977ZM383 952V371Q383
277 422 238T575 199Q689 199 728 238T768 371V952Q768 1046 729 1085T575 1124Q462 1124 423 1085T383 952Z" />
<glyph unicode="1" glyph-name="one" horiz-adv-x="786" d="M373 1047L125 909L20 1106L397 1323H623V0H373V1047Z" />
<glyph unicode="2" glyph-name="two" horiz-adv-x="1026" d="M109 0V215L426 569Q568 735 599 781Q643 847 648 919Q649 936 649 958V993Q649 1069 610 1095T459 1122Q321 1122 137 1081L102 1290Q285 1343 473 1343Q703 1343 801 1265T899 1022V975Q899 873 886
818T833 697T692 510L449 219H903V0H109Z" />
<glyph unicode="3" glyph-name="three" horiz-adv-x="1007" d="M102 23L129 229Q279 199 422 199Q553 199 594 229T635 342V422Q635 495 601 524T487 553H195V776H442Q541 776 575 809T610 920V999Q610 1072 570 1098T422 1124Q290 1124 139 1096L113 1307Q260
1343 444 1343Q563 1343 644 1324T773 1265T840 1172T860 1042V915Q860 816 827 760T713 668Q802 638 843 580T885 420V303Q885 223 864 166T791 65T651 1T430 -20Q355 -20 257 -8T102 23Z" />
<glyph unicode="4" glyph-name="four" horiz-adv-x="1157" d="M1096 291H922V0H676V291H57V522L588 1323H922V504H1096V291ZM307 504H676V1075L307 504Z" />
<glyph unicode="5" glyph-name="five" horiz-adv-x="1028" d="M164 571V1323H893V1106H414V776Q474 774 598 768Q769 759 842 679T915 455V330Q915 261 904 211T864 115T786 41T658 -4T471 -20Q285 -20 123 29L154 233Q309 199 467 199Q536 199 576 207T636 236T661
281T666 352V418Q666 493 630 525T489 561Q310 568 164 571Z" />
<glyph unicode="6" glyph-name="six" horiz-adv-x="1077" d="M373 879V752Q479 788 616 788Q801 788 883 708T965 451V352Q965 268 944 203T876 87T746 8T545 -20Q441 -20 366 -2T245 49T171 132T133 239T123 371V868Q123 1002 158 1094T266 1241T442 1319T688
1343Q818 1343 924 1319L907 1110Q819 1128 715 1128Q619 1128 559 1119T454 1082T392 1006T373 879ZM578 573Q471 573 373 530V344Q373 260 410 228T545 195Q640 195 677 229T715 344V444Q715 516 682 544T578 573Z" />
<glyph unicode="7" glyph-name="seven" horiz-adv-x="942" d="M51 1104V1323H881V1112L408 0H147L618 1104H51Z" />
<glyph unicode="8" glyph-name="eight" horiz-adv-x="1118" d="M963 928Q963 847 928 787T801 674Q911 619 953 557T995 406V319Q995 137 896 59T559 -20Q322 -20 223 58T123 319V406Q123 494 165 556T317 674Q226 727 191 787T156 928V1020Q156 1177 251 1260T559
1343T867 1260T963 1020V928ZM754 379Q754 426 742 453T688 508T559 569Q473 536 431 508T377 453T365 379V324Q365 248 407 217T559 186Q669 186 711 216T754 324V379ZM397 928Q397 869 426 839T559 768Q662 808 691 838T721 928V1014Q721 1079 687 1109T559 1139T432
1109T397 1014V928Z" />
<glyph unicode="9" glyph-name="nine" horiz-adv-x="1067" d="M694 444V571Q588 535 451 535Q266 535 184 615T102 872V971Q102 1152 200 1247T522 1343Q626 1343 701 1325T822 1274T896 1191T934 1084T944 952V455Q944 321 909 229T801 82T625 4T379 -20Q249
-20 143 4L166 213Q254 195 352 195Q549 195 621 248T694 444ZM489 750Q596 750 694 793V979Q694 1064 657 1096T522 1128Q427 1128 390 1094T352 979V879Q352 807 385 779T489 750Z" />
<glyph unicode=":" glyph-name="colon" horiz-adv-x="561" d="M154 0V287H408V0H154ZM154 623V909H408V623H154Z" />
<glyph unicode=";" glyph-name="semicolon" horiz-adv-x="561" d="M154 623V909H408V623H154ZM154 0V287H408V-16L248 -285L133 -221L248 0H154Z" />
<glyph unicode="&lt;" glyph-name="less" horiz-adv-x="1200" d="M102 432V567L987 1018L1065 866L338 500L1067 133L987 -20L102 432Z" />
<glyph unicode="=" glyph-name="equal" horiz-adv-x="1103" d="M143 618V791H961V618H143ZM143 233V406H961V233H143Z" />
<glyph unicode="&gt;" glyph-name="greater" horiz-adv-x="1200" d="M1098 567V432L213 -20L133 133L862 500L135 866L213 1018L1098 567Z" />
<glyph unicode="?" glyph-name="question" horiz-adv-x="1005" d="M469 446L328 637L516 786Q564 824 587 847T624 899T640 953T643 1030Q643 1130 602 1166T432 1202Q284 1202 139 1165L102 1380Q274 1425 459 1425Q591 1425 676 1403T809 1331T875 1214T893
1044Q893 977 891 940T881 859T854 786T805 721T727 647Q646 580 469 446ZM301 0V287H555V0H301Z" />
<glyph unicode="@" glyph-name="at" horiz-adv-x="1511" d="M842 602L889 872Q835 895 778 895Q732 895 710 876T680 815Q674 779 661 703T645 614Q639 580 650 566T692 551T765 565T842 602ZM502 616L539 825Q558 933 615 975T784 1018Q844 1018 922 998T1049
948L973 524Q1010 514 1044 514Q1107 514 1150 539T1215 609T1246 705T1255 819Q1255 1000 1135 1116T791 1233Q564 1233 418 1079T272 682Q272 425 419 279T840 133Q1004 133 1157 193L1204 55Q1051 -20 842 -20Q662 -20 521 31T288 176T150 398T102 682Q102 881
188 1041T433 1292T791 1384Q938 1384 1058 1340T1257 1218T1377 1040T1419 823Q1419 753 1409 692T1373 573T1307 474T1200 408T1049 383Q979 383 922 408T844 479Q757 428 643 428Q553 428 521 483T502 616Z" />
<glyph unicode="A" glyph-name="A" horiz-adv-x="1323" d="M1001 0L913 283H408L322 0H51L481 1364H842L1272 0H1001ZM662 1151L471 506H848L662 1151Z" />
<glyph unicode="B" glyph-name="B" horiz-adv-x="1181" d="M727 0H154V1364H690Q1053 1364 1053 1073V932Q1053 848 1017 797T901 711Q995 691 1047 625T1100 459V313Q1100 166 1005 83T727 0ZM842 346V449Q842 519 808 552T698 586H412V213H676Q765 213 803 242T842
346ZM795 920V1040Q795 1097 763 1124T659 1151H412V793H657Q730 793 762 825T795 920Z" />
<glyph unicode="C" glyph-name="C" horiz-adv-x="1071" d="M123 375V989Q123 1384 608 1384Q804 1384 979 1339L950 1116Q767 1151 616 1151Q485 1151 433 1104T381 944V420Q381 308 433 261T616 213Q767 213 950 248L979 25Q804 -20 608 -20Q123 -20 123 375Z" />
<glyph unicode="D" glyph-name="D" horiz-adv-x="1236" d="M154 1364H662Q783 1364 873 1335T1014 1254T1090 1138T1114 997V367Q1114 291 1090 227T1015 111T873 30T662 0H154V1364ZM412 1137V227H635Q760 227 808 275T856 428V936Q856 1040 808 1088T635 1137H412Z" />
<glyph unicode="E" glyph-name="E" horiz-adv-x="1101" d="M154 0V1364H989V1137H412V807H944V580H412V227H989V0H154Z" />
<glyph unicode="F" glyph-name="F" horiz-adv-x="1069" d="M412 0H154V1364H997V1137H412V774H952V547H412V0Z" />
<glyph unicode="G" glyph-name="G" horiz-adv-x="1196" d="M381 938V422Q381 317 435 264T618 211Q719 211 829 227V641H1073V41Q860 -20 616 -20Q123 -20 123 391V973Q123 1183 249 1283T641 1384Q864 1384 1032 1339L1004 1114Q833 1151 621 1151Q490 1151 436
1099T381 938Z" />
<glyph unicode="H" glyph-name="H" horiz-adv-x="1329" d="M1176 0H918V575H412V0H154V1364H412V803H918V1364H1176V0Z" />
<glyph unicode="I" glyph-name="I" horiz-adv-x="585" d="M422 1364V0H164V1364H422Z" />
<glyph unicode="J" glyph-name="J" horiz-adv-x="555" d="M154 1364H412V-23Q412 -126 358 -201T133 -422L-20 -248Q-9 -238 10 -219Q110 -123 132 -91T154 0V1364Z" />
<glyph unicode="K" glyph-name="K" horiz-adv-x="1253" d="M412 1364V0H154V1364H412ZM1163 1364L733 690L1192 0H895L449 690L870 1364H1163Z" />
<glyph unicode="L" glyph-name="L" horiz-adv-x="1034" d="M412 1364V227H973V0H154V1364H412Z" />
<glyph unicode="M" glyph-name="M" horiz-adv-x="1671" d="M1251 883L999 176H672L420 883L397 0H133L195 1364H483L836 395L1188 1364H1477L1538 0H1274L1251 883Z" />
<glyph unicode="N" glyph-name="N" horiz-adv-x="1421" d="M924 0L406 1034V0H154V1364H498L1016 328V1364H1268V0H924Z" />
<glyph unicode="O" glyph-name="O" horiz-adv-x="1277" d="M1155 965V399Q1155 310 1128 237T1042 105T882 13T639 -20T397 13T236 105T151 237T123 399V965Q123 1054 150 1127T236 1259T396 1351T639 1384T881 1351T1042 1259T1127 1127T1155 965ZM381 950V414Q381
312 440 260T639 207Q777 207 837 259T897 414V950Q897 1052 837 1104T639 1157Q500 1157 441 1105T381 950Z" />
<glyph unicode="P" glyph-name="P" horiz-adv-x="1179" d="M154 0V1364H686Q916 1364 1017 1273T1118 995V809Q1118 626 1012 534T674 442H412V0H154ZM860 975Q860 1061 818 1099T672 1137H412V670H672Q778 670 819 709T860 836V975Z" />
<glyph unicode="Q" glyph-name="Q" horiz-adv-x="1277" d="M702 -354L559 -16Q442 -8 356 28T220 121T147 248T123 399V965Q123 1054 150 1127T236 1259T396 1351T639 1384T881 1351T1042 1259T1127 1127T1155 965V399Q1155 249 1076 143T825 -2L934 -258L702
-354ZM381 950V414Q381 312 440 260T639 207Q777 207 837 259T897 414V950Q897 1052 837 1104T639 1157Q500 1157 441 1105T381 950Z" />
<glyph unicode="R" glyph-name="R" horiz-adv-x="1331" d="M1280 0H971L657 451H412V0H154V1364H713Q944 1364 1045 1273T1147 995V817Q1147 562 942 487L1280 0ZM889 975Q889 1062 847 1099T702 1137H412V674H702Q806 674 847 713T889 840V975Z" />
<glyph unicode="S" glyph-name="S" horiz-adv-x="1105" d="M1004 371Q1004 288 993 231T952 123T868 43T729 -3T524 -20Q411 -20 290 4T98 61L143 264Q348 201 528 201Q599 201 641 208T706 237T737 288T745 371Q745 405 745 422T740 461T731 492T712 516T683
536T638 552T577 570T496 588Q410 607 354 624T253 667T185 720T146 792T126 887T121 1014Q121 1110 144 1177T220 1291T362 1361T580 1384Q781 1384 977 1339L948 1122Q764 1163 584 1163Q497 1163 453 1148T394 1102T379 1008Q379 973 379 956T384 917T392 886T411
863T439 843T482 827T540 810T618 791Q689 774 740 759T833 726T901 691T948 649T979 601T995 539T1002 464T1004 371Z" />
<glyph unicode="T" glyph-name="T" horiz-adv-x="1122" d="M432 0V1137H51V1364H1071V1137H690V0H432Z" />
<glyph unicode="U" glyph-name="U" horiz-adv-x="1294" d="M893 1364H1151V395Q1151 328 1136 269T1084 156T991 64T846 3T647 -20T448 3T304 64T211 156T159 269T143 395V1364H401V416Q401 312 458 260T647 207T836 259T893 416V1364Z" />
<glyph unicode="V" glyph-name="V" horiz-adv-x="1228" d="M614 227L944 1364H1212L805 0H424L16 1364H285L614 227Z" />
<glyph unicode="W" glyph-name="W" horiz-adv-x="1933" d="M1139 1364L1386 307L1647 1364H1903L1565 0H1217L967 1098L717 0H369L31 1364H287L547 307L795 1364H1139Z" />
<glyph unicode="X" glyph-name="X" horiz-adv-x="1253" d="M774 686L1202 0H924L627 483L330 0H51L479 686L68 1364H344L627 889L909 1364H1186L774 686Z" />
<glyph unicode="Y" glyph-name="Y" horiz-adv-x="1159" d="M580 676L874 1364H1149L709 395V0H451V395L10 1364H285L580 676Z" />
<glyph unicode="Z" glyph-name="Z" horiz-adv-x="1177" d="M1049 1145L422 219H1055V0H133V217L764 1145H158V1364H1049V1145Z" />
<glyph unicode="[" glyph-name="bracketleft" horiz-adv-x="671" d="M610 -258H174V1618H610V1413H424V-53H610V-258Z" />
<glyph unicode="\" glyph-name="backslash" horiz-adv-x="940" d="M602 -240L92 1384H319L827 -240H602Z" />
<glyph unicode="]" glyph-name="bracketright" horiz-adv-x="671" d="M498 -258H61V-53H248V1413H61V1618H498V-258Z" />
<glyph unicode="^" glyph-name="asciicircum" horiz-adv-x="972" d="M244 760L92 852L397 1405H571L881 852L725 760L485 1196L244 760Z" />
<glyph unicode="_" glyph-name="underscore" horiz-adv-x="899" d="M901 -152H-2V-20H901V-152Z" />
<glyph unicode="`" glyph-name="grave" horiz-adv-x="643" d="M520 1243L428 1104Q314 1168 123 1292L221 1444Q346 1352 520 1243Z" />
<glyph unicode="a" glyph-name="a" horiz-adv-x="1005" d="M883 657V0H678L659 68Q527 -20 362 -20Q231 -20 167 60T102 276Q102 427 170 492T393 557H633V662Q633 748 596 779T442 811Q310 811 166 780L135 971Q293 1018 477 1018Q595 1018 673 998T797 931T863
820T883 657ZM633 229V377H449Q388 377 366 357T344 279Q344 225 366 202T444 178Q541 178 633 229Z" />
<glyph unicode="b" glyph-name="b" horiz-adv-x="1081" d="M989 676V383Q989 305 979 248T938 137T858 52T726 0T530 -20Q320 -20 143 14V1405L393 1440V958Q536 1018 688 1018Q989 1018 989 676ZM393 748V201Q453 193 543 193Q659 193 699 236T739 375V682Q739
744 710 774T612 805Q519 805 393 748Z" />
<glyph unicode="c" glyph-name="c" horiz-adv-x="858" d="M528 -20Q295 -20 197 69T98 362V635Q98 838 197 928T528 1018Q662 1018 772 981L741 776Q646 803 535 803Q428 803 388 767T348 637V360Q348 267 388 231T535 195Q638 195 741 221L772 16Q666 -20 528 -20Z" />
<glyph unicode="d" glyph-name="d" horiz-adv-x="1091" d="M102 326V666Q102 1018 432 1018Q567 1018 698 989V1405L948 1440V0H750L725 84Q582 -20 410 -20Q259 -20 181 67T102 326ZM698 283V778Q581 805 477 805Q411 805 382 773T352 672V319Q352 256 380 225T475
193Q535 193 596 218T698 283Z" />
<glyph unicode="e" glyph-name="e" horiz-adv-x="985" d="M348 352Q348 259 389 222T543 184Q688 184 848 231L887 43Q721 -20 520 -20Q294 -20 196 78T98 365V629Q98 713 118 779T184 901T313 987T512 1018Q605 1018 675 997T788 939T857 850T893 741T903 616V403H348V352ZM348
653V604H666V653Q666 731 633 772T514 813Q348 813 348 653Z" />
<glyph unicode="f" glyph-name="f" horiz-adv-x="743" d="M743 1417L717 1225Q642 1241 573 1241T483 1213T461 1122V997H715L700 799H461V0H211V799H51V997H211V1137Q211 1293 287 1369T528 1446Q644 1446 743 1417Z" />
<glyph unicode="g" glyph-name="g" horiz-adv-x="1001" d="M483 266Q444 266 426 268Q367 232 367 188Q367 169 380 159T422 145Q477 139 711 115Q828 101 876 43T924 -127Q924 -211 906 -264T839 -355T701 -408T473 -424Q253 -424 88 -373L119 -186Q288 -229
455 -229Q603 -229 647 -214T692 -150Q692 -105 675 -91T598 -70L309 -37Q202 -24 158 18T113 154Q113 250 217 324Q82 405 82 592V686Q85 848 180 933T483 1018Q574 1018 653 997H961V872Q943 867 906 857T850 842Q885 774 885 686V592Q885 435 786 351T483 266ZM651
678Q651 750 613 783T483 817Q393 817 355 784T317 678V602Q317 529 356 498T483 467Q572 467 611 498T651 602V678Z" />
<glyph unicode="h" glyph-name="h" horiz-adv-x="1116" d="M983 0H733V696Q733 737 715 756T653 776Q608 776 535 752T393 692V0H143V1405L393 1440V922Q476 965 577 991T758 1018Q983 1018 983 723V0Z" />
<glyph unicode="i" glyph-name="i" horiz-adv-x="536" d="M393 0H143V997H393V0ZM393 1139H143V1427H393V1139Z" />
<glyph unicode="j" glyph-name="j" horiz-adv-x="522" d="M139 997H389V-53Q389 -147 341 -216T129 -424L-16 -264Q87 -168 108 -141Q136 -104 139 -48Q139 -37 139 -20V997ZM389 1139H139V1427H389V1139Z" />
<glyph unicode="k" glyph-name="k" horiz-adv-x="1040" d="M393 0H143V1405L393 1440V0ZM713 997H991L698 504L1004 0H729L428 504L713 997Z" />
<glyph unicode="l" glyph-name="l" horiz-adv-x="536" d="M393 0H143V1405L393 1440V0Z" />
<glyph unicode="m" glyph-name="m" horiz-adv-x="1705" d="M983 0H733V696Q733 737 715 756T653 776Q608 776 535 752T393 692V0H143V997H334L358 913Q453 960 562 989T758 1018Q894 1018 946 911Q1039 958 1149 988T1348 1018Q1573 1018 1573 723V0H1323V696Q1323
737 1304 756T1243 776Q1197 776 1119 751T983 692V0Z" />
<glyph unicode="n" glyph-name="n" horiz-adv-x="1116" d="M983 0H733V696Q733 737 715 756T653 776Q608 776 535 752T393 692V0H143V997H334L358 913Q453 960 562 989T758 1018Q983 1018 983 723V0Z" />
<glyph unicode="o" glyph-name="o" horiz-adv-x="1064" d="M967 373Q967 291 947 225T879 101T743 12T532 -20Q433 -20 356 1T231 59T153 146T110 253T98 373V625Q98 707 118 773T186 897T321 986T532 1018Q631 1018 708 997T833 939T912 851T955 745T967 625V373ZM717
633Q717 719 674 762T532 805Q435 805 392 762T348 633V365Q348 278 391 236T532 193Q630 193 673 235T717 365V633Z" />
<glyph unicode="p" glyph-name="p" horiz-adv-x="1091" d="M989 672V332Q989 -20 659 -20Q530 -20 393 8V-403L143 -438V997H342L367 913Q511 1018 682 1018Q833 1018 911 930T989 672ZM393 715V219Q516 193 614 193Q681 193 710 225T739 326V678Q739 742 711
773T616 805Q557 805 496 779T393 715Z" />
<glyph unicode="q" glyph-name="q" horiz-adv-x="1081" d="M102 322V614Q102 692 112 749T153 860T233 946T365 998T561 1018Q773 1018 948 983V-403L698 -438V39Q559 -20 403 -20Q102 -20 102 322ZM698 250V797Q638 805 549 805Q433 805 393 762T352 623V315Q352
254 382 224T479 193Q578 193 698 250Z" />
<glyph unicode="r" glyph-name="r" horiz-adv-x="681" d="M633 1018L657 788Q537 734 393 643V0H143V997H354L371 887Q423 922 498 961T633 1018Z" />
<glyph unicode="s" glyph-name="s" horiz-adv-x="915" d="M813 291Q813 229 805 184T773 99T710 34T606 -5T453 -20Q373 -20 276 -4T109 37L143 227Q294 184 440 184Q520 184 543 204T567 285Q567 320 558 338T511 377T393 416Q319 434 272 453T193 495T147 553T126
627T121 729Q121 884 203 951T494 1018Q662 1018 793 983L768 784Q621 813 494 813Q416 813 392 795T367 727Q367 693 369 679T387 650T428 629T508 606Q582 586 627 572T710 537T765 498T795 447T810 381T813 291Z" />
<glyph unicode="t" glyph-name="t" horiz-adv-x="727" d="M645 209L674 18Q636 2 570 -9T455 -20Q180 -20 180 244V799H31V997H180V1245L430 1280V997H686L670 799H430V276Q430 188 520 188Q570 188 645 209Z" />
<glyph unicode="u" glyph-name="u" horiz-adv-x="1116" d="M133 997H383V301Q383 221 463 221Q508 221 581 245T723 305V997H973V0H782L758 84Q663 38 554 9T358 -20Q133 -20 133 274V997Z" />
<glyph unicode="v" glyph-name="v" horiz-adv-x="989" d="M979 997L659 0H330L10 997H266L494 240L723 997H979Z" />
<glyph unicode="w" glyph-name="w" horiz-adv-x="1441" d="M510 0H221L37 997H270L393 330L592 997H852L1049 330L1171 997H1405L1221 0H932L721 717L510 0Z" />
<glyph unicode="x" glyph-name="x" horiz-adv-x="958" d="M279 0H25L346 502L31 997H281L479 694L676 997H926L610 502L934 0H678L479 309L279 0Z" />
<glyph unicode="y" glyph-name="y" horiz-adv-x="978" d="M979 997L659 0L526 -403H289L414 0H326L10 997H266L494 240L723 997H979Z" />
<glyph unicode="z" glyph-name="z" horiz-adv-x="942" d="M119 805V997H846V805L401 193H860V0H113V193L557 805H119Z" />
<glyph unicode="{" glyph-name="braceleft" horiz-adv-x="696" d="M133 567H92V760H133Q180 760 199 780T219 842V1317Q219 1468 282 1543T485 1618H655V1417H551Q509 1417 489 1398T469 1333V899Q469 792 433 731T301 664Q351 661 385 642T437 589T462 517T469
428V-6Q469 -51 489 -70T551 -90H655V-291H485Q346 -291 283 -216T219 10V485Q219 526 200 546T133 567Z" />
<glyph unicode="|" glyph-name="bar" horiz-adv-x="522" d="M338 1618V-430H184V1618H338Z" />
<glyph unicode="}" glyph-name="braceright" horiz-adv-x="696" d="M604 567H563Q516 567 497 547T477 485V10Q477 -141 414 -216T211 -291H41V-90H145Q188 -90 207 -71T227 -6V428Q227 479 234 517T258 588T310 641T395 664Q299 670 263 731T227 899V1333Q227
1379 208 1398T145 1417H41V1618H211Q350 1618 413 1543T477 1317V842Q477 802 496 781T563 760H604V567Z" />
<glyph unicode="~" glyph-name="asciitilde" horiz-adv-x="987" d="M784 725L926 647Q907 592 886 551T832 472T753 415T649 395Q607 395 560 416T479 462T408 509T346 530Q327 530 312 524T286 513T264 490T248 465T231 430T213 393L72 471Q90 517 101 544T130
604T165 655T207 691T262 716T332 723Q370 723 415 702T497 655T575 608T649 586Q677 586 700 598T739 633T764 676T784 725Z" />
</font>
</defs>
</svg>
