<?xml version="1.0" standalone="no"?> <!DOCTYPE svg PUBLIC "-//W3C//DTD SVG 1.0//EN" "http://www.w3.org/TR/2001/REC-SVG-20010904/DTD/svg10.dtd" > <svg xmlns="http://www.w3.org/2000/svg" width="100%" height="100%">
<defs >
<font id="klavikaregular" horiz-adv-x="841" ><font-face
    font-family="Klavika Rg"
    units-per-em="2048"
    panose-1="2 0 0 0 0 0 0 0 0 0"
    ascent="1536"
    descent="-512"
    alphabetic="0" />
<missing-glyph horiz-adv-x="1343" d="M195 0V1364H1149V0H195ZM1049 1262H352L1049 182V1262ZM295 1180V100H989L295 1180Z" />
<glyph unicode=" " glyph-name="space" horiz-adv-x="440" />
<glyph unicode="!" glyph-name="exclam" horiz-adv-x="544" d="M326 389H219L186 737V1405H358V737L326 389ZM184 0V236H360V0H184Z" />
<glyph unicode="&quot;" glyph-name="quotedbl" horiz-adv-x="768" d="M285 903H143V1405H285V903ZM625 903H483V1405H625V903Z" />
<glyph unicode="#" glyph-name="numbersign" horiz-adv-x="1447" d="M1303 354H1036L1020 0H881L897 354H526L504 0H365L387 354H123L131 483H397L418 864H147L154 993H426L444 1323H584L565 993H932L950 1323H1090L1071 993H1335L1327 864H1063L1042 483H1311L1303
354ZM557 864L537 483H903L924 864H557Z" />
<glyph unicode="$" glyph-name="dollar" horiz-adv-x="1060" d="M600 -231H449V-18Q278 -8 123 49L145 188Q337 131 512 131Q594 131 641 140T715 177T748 239T756 340Q756 385 755 408T744 458T720 497T673 529T601 562T494 598Q414 624 361 644T267 691T204
742T168 806T149 886T145 991Q145 1169 221 1250T492 1341V1554H643V1339Q801 1332 907 1305L891 1159Q720 1192 559 1192Q483 1192 441 1185T369 1156T328 1095T317 987Q317 947 319 923T330 874T353 836T395 805T459 775T551 743Q640 714 696 693T797 645T866
594T904 530T924 449T928 342Q928 160 856 80T600 -16V-231Z" />
<glyph unicode="%" glyph-name="percent" horiz-adv-x="1722" d="M1190 1333L637 -20L516 33L1067 1384L1190 1333ZM705 918Q705 783 636 711T403 639Q240 639 171 711T102 918V1106Q102 1241 171 1312T403 1384Q567 1384 636 1313T705 1106V918ZM242 1112V911Q242
834 278 798T403 762T528 798T565 911V1112Q565 1189 529 1225T403 1262Q315 1262 279 1226T242 1112ZM1610 258Q1610 123 1541 52T1309 -20Q1145 -20 1077 51T1008 258V446Q1008 581 1076 653T1309 725Q1472 725 1541 653T1610 446V258ZM1147 453V252Q1147 175
1183 139T1309 102T1434 138T1470 252V453Q1470 530 1434 566T1309 602T1184 566T1147 453Z" />
<glyph unicode="&amp;" glyph-name="ampersand" horiz-adv-x="1261" d="M1200 610H999V37Q796 -20 582 -20Q353 -20 254 60T154 307V432Q154 533 200 601T334 694Q182 756 182 936V1077Q182 1230 276 1307T592 1384Q785 1384 967 1348L950 1206Q776 1235 594 1235Q460
1235 407 1196T354 1057V920Q354 758 539 758H1200V610ZM582 129Q723 129 836 154V610H545Q429 610 378 567T326 424V326Q326 217 381 173T582 129Z" />
<glyph unicode="&apos;" glyph-name="quotesingle" horiz-adv-x="428" d="M285 903H143V1405H285V903Z" />
<glyph unicode="(" glyph-name="parenleft" horiz-adv-x="622" d="M459 1561L582 1479Q438 1256 377 1054T315 623T376 192T582 -233L459 -315Q143 108 143 623Q143 1136 459 1561Z" />
<glyph unicode=")" glyph-name="parenright" horiz-adv-x="622" d="M41 1479L164 1561Q479 1137 479 623Q479 107 164 -315L41 -233Q184 -10 245 192T307 623T246 1054T41 1479Z" />
<glyph unicode="*" glyph-name="asterisk" horiz-adv-x="968" d="M236 784L395 1030H102V1126H399L238 1376L315 1427L483 1167L651 1427L729 1376L567 1126H866V1030H571L731 784L651 735L483 995L315 735L236 784Z" />
<glyph unicode="+" glyph-name="plus" horiz-adv-x="1077" d="M123 426V569H463V915H614V569H954V426H614V80H463V426H123Z" />
<glyph unicode="," glyph-name="comma" horiz-adv-x="520" d="M170 0V236H346V0L223 -246L143 -207L229 0H170Z" />
<glyph unicode="-" glyph-name="hyphen" horiz-adv-x="757" d="M123 500V641H635V500H123Z" />
<glyph unicode="." glyph-name="period" horiz-adv-x="524" d="M174 0V236H350V0H174Z" />
<glyph unicode="/" glyph-name="slash" horiz-adv-x="913" d="M791 1384L285 -240H123L627 1384H791Z" />
<glyph unicode="0" glyph-name="zero" horiz-adv-x="1130" d="M987 989V334Q987 -20 565 -20T143 334V989Q143 1343 565 1343T987 989ZM815 971Q815 1086 759 1139T565 1192Q428 1192 372 1139T315 971V352Q315 237 371 184T565 131Q703 131 759 184T815 352V971Z" />
<glyph unicode="1" glyph-name="one" horiz-adv-x="716" d="M360 1126L96 979L20 1116L379 1323H532V0H360V1126Z" />
<glyph unicode="2" glyph-name="two" horiz-adv-x="995" d="M102 0V158L455 565Q558 687 606 759T666 869T678 963V1022Q678 1090 661 1124T592 1174T436 1190Q293 1190 133 1145L109 1292Q275 1343 451 1343Q545 1343 613 1330T727 1291T800 1226T839 1138T850
1024V979Q850 855 809 770T616 504L315 152H862V0H102Z" />
<glyph unicode="3" glyph-name="three" horiz-adv-x="997" d="M102 20L121 164Q262 131 420 131Q565 131 623 170T682 307V410Q682 506 631 547T475 588H195V739H453Q567 739 612 781T657 909V1028Q657 1120 608 1156T436 1192Q302 1192 147 1161L129 1307Q284
1343 440 1343Q650 1343 739 1272T829 1053V932Q829 832 797 772T674 668Q763 642 808 586T854 424V291Q854 130 751 55T420 -20Q225 -20 102 20Z" />
<glyph unicode="4" glyph-name="four" horiz-adv-x="1099" d="M1038 326H848V0H676V326H45V496L616 1323H848V473H1038V326ZM215 473H676V1149L215 473Z" />
<glyph unicode="5" glyph-name="five" horiz-adv-x="1015" d="M170 604V1323H866V1171H342V752Q500 748 561 745Q735 738 809 659T883 438V319Q883 234 863 174T796 69T666 2T463 -20Q259 -20 119 27L137 166Q281 131 461 131Q563 131 617 151T691 212T711 330V420Q711
516 668 555T500 598Q418 600 302 602T170 604Z" />
<glyph unicode="6" glyph-name="six" horiz-adv-x="1048" d="M313 879V711Q367 730 444 744T586 758Q776 758 856 679T936 432V367Q936 290 927 234T892 128T823 47T709 -2T543 -20Q331 -20 237 61T143 295V881Q143 1134 266 1238T680 1343Q808 1343 905 1319L887
1176Q799 1194 707 1194Q609 1194 544 1185T432 1155T360 1096T324 1007T313 879ZM569 608Q442 608 313 553V319Q313 214 367 173T543 131Q672 131 719 173T766 319V432Q766 528 723 568T569 608Z" />
<glyph unicode="7" glyph-name="seven" horiz-adv-x="901" d="M51 1171V1323H864V1178L319 0H145L688 1171H51Z" />
<glyph unicode="8" glyph-name="eight" horiz-adv-x="1114" d="M946 969Q946 868 900 801T733 676Q871 613 926 542T981 365V305Q981 133 882 57T557 -20Q331 -20 232 56T133 305V365Q133 471 187 541T375 676Q257 734 213 800T168 969V1022Q168 1095 187 1151T250
1251T371 1319T557 1343Q766 1343 856 1258T946 1022V969ZM813 358Q813 403 803 433T761 490T685 541T557 598Q399 534 350 489T301 358V311Q301 207 357 167T557 127Q699 127 756 167T813 311V358ZM336 965Q336 887 380 843T557 745Q690 799 734 843T778 965V1030Q778
1115 729 1156T557 1198Q434 1198 385 1157T336 1030V965Z" />
<glyph unicode="9" glyph-name="nine" horiz-adv-x="1048" d="M735 444V612Q682 593 605 579T463 565Q273 565 193 644T113 891V956Q113 1032 123 1089T159 1195T228 1276T341 1325T506 1343Q905 1343 905 1022V442Q905 189 783 85T369 -20Q242 -20 143 4L160
147Q248 129 342 129Q440 129 505 138T616 168T688 227T724 316T735 444ZM479 715Q608 715 735 770V1004Q735 1110 681 1151T506 1192Q377 1192 330 1150T283 1004V891Q283 795 326 755T479 715Z" />
<glyph unicode=":" glyph-name="colon" horiz-adv-x="524" d="M174 627V862H350V627H174ZM174 0V236H350V0H174Z" />
<glyph unicode=";" glyph-name="semicolon" horiz-adv-x="520" d="M170 0V236H346V0L223 -246L143 -207L229 0H170ZM170 627V862H346V627H170Z" />
<glyph unicode="&lt;" glyph-name="less" horiz-adv-x="1142" d="M102 553L948 1020L1010 907L262 500L1010 92L948 -20L102 446V553Z" />
<glyph unicode="=" glyph-name="equal" horiz-adv-x="1042" d="M143 612V739H899V612H143ZM143 248V375H899V248H143Z" />
<glyph unicode="&gt;" glyph-name="greater" horiz-adv-x="1142" d="M195 1020L1040 553V446L195 -20L133 92L881 500L133 907L195 1020Z" />
<glyph unicode="?" glyph-name="question" horiz-adv-x="974" d="M410 459L311 590Q332 606 411 664T539 762Q579 794 601 817T639 860T660 910T668 967T670 1049Q670 1119 663 1157T631 1224T559 1262T432 1272Q265 1272 135 1241L113 1389Q170 1404 267 1414T444
1425Q567 1425 646 1404T768 1334T826 1221T842 1057Q842 995 841 959T832 883T814 820T781 765T731 709T657 647L410 459ZM309 0V236H485V0H309Z" />
<glyph unicode="@" glyph-name="at" horiz-adv-x="1523" d="M860 582L913 887Q842 909 782 909Q734 909 708 889T674 825L635 604Q628 564 642 550T702 535Q738 535 784 548T860 582ZM514 592L555 827Q574 928 630 970T801 1012Q916 1012 1044 954L969 524Q1001
512 1049 512Q1101 512 1142 529T1209 575T1252 644T1277 726T1284 817Q1284 1025 1155 1146T791 1268Q560 1268 407 1105T254 682Q254 412 407 254T854 96Q1026 96 1219 174L1255 72Q1088 -20 850 -20Q677 -20 539 30T310 173T171 395T123 682Q123 885 206 1045T442
1294T791 1384Q1087 1384 1249 1232T1411 821Q1411 638 1317 523T1044 408Q916 408 870 481Q767 424 659 424Q576 424 538 469T514 592Z" />
<glyph unicode="A" glyph-name="A" horiz-adv-x="1273" d="M756 1364L1217 0H1038L926 328H346L236 0H57L518 1364H756ZM881 481L637 1237L393 481H881Z" />
<glyph unicode="B" glyph-name="B" horiz-adv-x="1169" d="M729 0H174V1364H700Q860 1364 941 1294T1022 1087V930Q1022 846 987 791T866 702Q959 686 1013 624T1067 457V293Q1067 152 977 76T729 0ZM891 307V451Q891 618 694 618H350V152H705Q891 152 891 307ZM846
930V1083Q846 1149 808 1180T690 1212H350V770H662Q846 770 846 930Z" />
<glyph unicode="C" glyph-name="C" horiz-adv-x="1056" d="M319 973V391Q319 249 384 194T616 139Q767 139 936 168L954 16Q794 -20 610 -20Q366 -20 255 81T143 381V983Q143 1182 254 1283T610 1384Q794 1384 954 1348L936 1196Q767 1225 616 1225Q449 1225 384
1170T319 973Z" />
<glyph unicode="D" glyph-name="D" horiz-adv-x="1222" d="M174 1364H651Q749 1364 825 1344T950 1289T1031 1204T1076 1098T1090 973V391Q1090 323 1077 267T1032 160T951 75T825 20T651 0H174V1364ZM350 1206V158H645Q794 158 853 218T913 403V961Q913 1086
854 1146T645 1206H350Z" />
<glyph unicode="E" glyph-name="E" horiz-adv-x="1105" d="M174 0V1364H977V1206H350V778H932V621H350V158H979V0H174Z" />
<glyph unicode="F" glyph-name="F" horiz-adv-x="1067" d="M350 0H174V1364H985V1206H350V752H942V594H350V0Z" />
<glyph unicode="G" glyph-name="G" horiz-adv-x="1183" d="M319 973V391Q319 322 331 278T374 201T461 154T604 139Q736 139 860 164V627H1030V39Q829 -20 598 -20Q470 -20 381 6T240 86T166 211T143 381V981Q143 1190 255 1287T621 1384Q811 1384 999 1341L979
1190Q771 1225 612 1225Q445 1225 382 1169T319 973Z" />
<glyph unicode="H" glyph-name="H" horiz-adv-x="1304" d="M1130 0H954V618H350V0H174V1364H350V776H954V1364H1130V0Z" />
<glyph unicode="I" glyph-name="I" horiz-adv-x="544" d="M360 1364V0H184V1364H360Z" />
<glyph unicode="J" glyph-name="J" horiz-adv-x="524" d="M174 1364H350V-6Q350 -49 348 -75T336 -131T312 -181T267 -236T200 -305T103 -396Q96 -403 92 -406L-18 -281Q62 -204 93 -174T147 -109T172 -57T174 0V1364Z" />
<glyph unicode="K" glyph-name="K" horiz-adv-x="1204" d="M350 1364V0H174V1364H350ZM1092 1364L592 694L1133 0H922L393 694L885 1364H1092Z" />
<glyph unicode="L" glyph-name="L" horiz-adv-x="1024" d="M350 1364V158H942V0H174V1364H350Z" />
<glyph unicode="M" glyph-name="M" horiz-adv-x="1634" d="M698 176L350 1106L324 0H154L201 1364H424L817 309L1210 1364H1434L1481 0H1311L1284 1106L936 176H698Z" />
<glyph unicode="N" glyph-name="N" horiz-adv-x="1351" d="M936 0L342 1161V0H174V1364H416L1010 197V1364H1178V0H936Z" />
<glyph unicode="O" glyph-name="O" horiz-adv-x="1273" d="M1130 971V393Q1130 323 1113 263T1058 150T963 60T823 2T637 -20Q509 -20 412 12T258 101T172 232T143 393V971Q143 1059 171 1132T257 1262T412 1352T637 1384Q740 1384 823 1363T962 1304T1057 1215T1113
1102T1130 971ZM319 967V397Q319 269 398 202T637 135T875 202T954 397V967Q954 1095 875 1162T637 1229T399 1162T319 967Z" />
<glyph unicode="P" glyph-name="P" horiz-adv-x="1140" d="M174 0V1364H668Q879 1364 971 1279T1063 1028V825Q1063 659 971 573T668 487H350V0H174ZM887 1026Q887 1127 838 1166T662 1206H350V645H662Q787 645 837 685T887 825V1026Z" />
<glyph unicode="Q" glyph-name="Q" horiz-adv-x="1273" d="M1130 971V393Q1130 238 1042 130T774 -8L889 -268L731 -340L590 -18Q474 -12 387 22T247 112T169 239T143 393V971Q143 1059 171 1132T257 1262T412 1352T637 1384Q740 1384 823 1363T962 1304T1057
1215T1113 1102T1130 971ZM319 967V397Q319 269 398 202T637 135T875 202T954 397V967Q954 1095 875 1162T637 1229T399 1162T319 967Z" />
<glyph unicode="R" glyph-name="R" horiz-adv-x="1294" d="M1024 0L684 494H350V0H174V1364H694Q905 1364 997 1279T1090 1028V831Q1090 706 1039 627T872 514L1227 0H1024ZM913 1026Q913 1127 864 1166T688 1206H350V649H688Q814 649 863 689T913 829V1026Z" />
<glyph unicode="S" glyph-name="S" horiz-adv-x="1105" d="M973 352Q973 276 963 222T925 120T847 42T718 -3T528 -20Q300 -20 123 51L152 195Q343 135 532 135Q642 135 699 157T776 222T797 348Q797 382 797 398T795 439T789 474T778 502T761 525T735 544T699
562T651 577T591 594T514 612Q428 631 372 648T272 691T206 743T168 814T149 907T145 1032Q145 1156 183 1230T318 1344T582 1384Q782 1384 950 1339L936 1190Q759 1229 586 1229Q473 1229 417 1210T342 1150T322 1026Q322 982 322 963T326 916T335 877T356 849T387
825T436 806T502 784T592 762Q663 744 712 730T804 697T872 664T918 623T948 576T964 516T971 443T973 352Z" />
<glyph unicode="T" glyph-name="T" horiz-adv-x="1073" d="M449 0V1206H41V1364H1032V1206H625V0H449Z" />
<glyph unicode="U" glyph-name="U" horiz-adv-x="1294" d="M954 1364H1130V383Q1130 296 1104 226T1022 99T872 11T647 -20T423 11T272 98T191 225T164 383V1364H340V393Q340 265 414 201T647 137T880 201T954 393V1364Z" />
<glyph unicode="V" glyph-name="V" horiz-adv-x="1212" d="M487 0L37 1364H207L606 154L1006 1364H1176L725 0H487Z" />
<glyph unicode="W" glyph-name="W" horiz-adv-x="1859" d="M1053 1364L1335 168L1647 1364H1819L1460 0H1212L930 1219L647 0H399L41 1364H213L524 168L807 1364H1053Z" />
<glyph unicode="X" glyph-name="X" horiz-adv-x="1206" d="M61 0L504 692L76 1364H264L602 831L942 1364H1130L700 692L1145 0H956L602 553L250 0H61Z" />
<glyph unicode="Y" glyph-name="Y" horiz-adv-x="1122" d="M561 602L918 1364H1102L649 412V0H473V412L20 1364H205L561 602Z" />
<glyph unicode="Z" glyph-name="Z" horiz-adv-x="1187" d="M1040 1212L336 152H1055V0H143V152L846 1212H156V1364H1040V1212Z" />
<glyph unicode="[" glyph-name="bracketleft" horiz-adv-x="632" d="M592 -258H195V1618H592V1470H367V-111H592V-258Z" />
<glyph unicode="\" glyph-name="backslash" horiz-adv-x="903" d="M629 -240L123 1384H287L791 -240H629Z" />
<glyph unicode="]" glyph-name="bracketright" horiz-adv-x="632" d="M438 -258H41V-111H266V1470H41V1618H438V-258Z" />
<glyph unicode="^" glyph-name="asciicircum" horiz-adv-x="942" d="M850 836L727 772L471 1255L215 772L92 836L397 1405H545L850 836Z" />
<glyph unicode="_" glyph-name="underscore" horiz-adv-x="880" d="M883 -100H-2V-20H883V-100Z" />
<glyph unicode="`" glyph-name="grave" horiz-adv-x="641" d="M498 1225L428 1118Q274 1201 143 1296L217 1411Q319 1328 498 1225Z" />
<glyph unicode="a" glyph-name="a" horiz-adv-x="1009" d="M870 694V0H725L715 74Q582 -20 391 -20Q127 -20 127 266Q127 417 202 482T432 547H698V702Q698 796 650 833T481 870Q338 870 182 838L164 975Q332 1018 492 1018Q698 1018 784 939T870 694ZM698 209V403H444Q364
403 332 374T299 270Q299 188 325 158T440 127Q572 127 698 209Z" />
<glyph unicode="b" glyph-name="b" horiz-adv-x="1062" d="M944 707V352Q944 262 926 198T861 82T730 6T520 -20Q332 -20 164 18V1405L336 1430V948Q393 978 477 998T651 1018Q801 1018 872 937T944 707ZM336 791V145Q430 131 532 131Q606 131 654 145T728 189T762
255T772 346V713Q772 791 734 828T610 866Q550 866 473 843T336 791Z" />
<glyph unicode="c" glyph-name="c" horiz-adv-x="837" d="M500 -20Q382 -20 303 3T181 76T120 188T102 342V655Q102 745 120 809T183 922T306 994T500 1018Q644 1018 737 987L723 844Q616 866 504 866Q374 866 324 822T274 662V336Q274 220 324 176T504 131Q617
131 723 154L739 10Q643 -20 500 -20Z" />
<glyph unicode="d" glyph-name="d" horiz-adv-x="1071" d="M127 285V692Q127 1018 451 1018Q589 1018 735 987V1405L907 1430V0H762L748 90Q609 -20 418 -20Q127 -20 127 285ZM735 250V836Q582 866 461 866Q375 866 337 825T299 692V285Q299 204 332 168T453 131Q524
131 601 164T735 250Z" />
<glyph unicode="e" glyph-name="e" horiz-adv-x="985" d="M285 348Q285 286 294 247T330 179T403 139T522 127Q661 127 838 174L860 37Q707 -20 508 -20Q296 -20 205 74T113 346V645Q113 726 133 791T196 908T318 989T504 1018Q611 1018 686 989T803 907T861 789T879
641V432H285V348ZM285 657V575H713V657Q713 768 667 821T504 874Q386 874 336 820T285 657Z" />
<glyph unicode="f" glyph-name="f" horiz-adv-x="722" d="M723 1417L709 1284Q606 1303 543 1303Q465 1303 438 1273T410 1165V997H694L680 854H410V0H238V854H61V997H238V1182Q238 1313 309 1379T520 1446Q629 1446 723 1417Z" />
<glyph unicode="g" glyph-name="g" horiz-adv-x="1003" d="M936 997V897L817 874Q869 803 872 676V631Q872 468 773 380T481 291Q426 291 379 297Q307 237 307 190Q307 162 322 149T373 133Q415 129 655 104Q790 91 847 35T905 -135Q905 -221 888 -272T822 -360T690
-410T469 -424Q394 -424 290 -412T106 -377L131 -242Q310 -283 465 -283Q542 -283 591 -278T672 -265T718 -238T738 -199T743 -143Q743 -82 715 -63T596 -35Q548 -31 472 -23T332 -10Q137 6 137 172Q137 275 231 348Q92 426 92 631V676Q92 845 183 931T481 1018Q583
1018 649 997H936ZM709 674Q709 783 657 830T481 877T306 831T254 674V631Q254 519 305 476T481 432Q601 432 655 481T709 631V674Z" />
<glyph unicode="h" glyph-name="h" horiz-adv-x="1091" d="M938 0H766V762Q766 854 670 854Q614 854 515 824T336 752V0H164V1405L336 1430V913Q425 957 531 987T721 1018Q938 1018 938 764V0Z" />
<glyph unicode="i" glyph-name="i" horiz-adv-x="499" d="M336 0H164V997H336V0ZM336 1157H164V1405H336V1157Z" />
<glyph unicode="j" glyph-name="j" horiz-adv-x="489" d="M164 997H336V-63Q336 -103 335 -125T324 -175T303 -220T261 -270T198 -331T104 -414L0 -293Q85 -217 117 -182T156 -124T164 -53V997ZM336 1157H164V1405H336V1157Z" />
<glyph unicode="k" glyph-name="k" horiz-adv-x="991" d="M336 0H164V1405L336 1430V0ZM731 997H930L573 504L946 0H743L379 504L731 997Z" />
<glyph unicode="l" glyph-name="l" horiz-adv-x="499" d="M336 0H164V1405L336 1430V0Z" />
<glyph unicode="m" glyph-name="m" horiz-adv-x="1693" d="M1540 0H1368V762Q1368 854 1272 854Q1211 854 1115 825T938 754V0H766V762Q766 854 670 854Q614 854 515 825T336 754V0H164V997H303L319 911Q408 954 522 986T721 1018Q867 1018 911 911Q1005 957 1119
987T1323 1018Q1540 1018 1540 764V0Z" />
<glyph unicode="n" glyph-name="n" horiz-adv-x="1091" d="M938 0H766V762Q766 854 670 854Q614 854 515 825T336 754V0H164V997H303L319 911Q408 954 522 986T721 1018Q938 1018 938 764V0Z" />
<glyph unicode="o" glyph-name="o" horiz-adv-x="1036" d="M924 354Q924 186 825 83T518 -20T212 83T113 354V643Q113 724 136 790T206 908T332 989T518 1018Q725 1018 824 915T924 643V354ZM752 649Q752 868 518 868Q285 868 285 649V348Q285 129 518 129Q752
129 752 348V649Z" />
<glyph unicode="p" glyph-name="p" horiz-adv-x="1071" d="M944 713V305Q944 -20 621 -20Q486 -20 336 10V-403L164 -428V997H309L324 907Q462 1018 653 1018Q944 1018 944 713ZM336 748V162Q486 131 610 131Q696 131 734 172T772 305V713Q772 793 739 829T618
866Q547 866 471 833T336 748Z" />
<glyph unicode="q" glyph-name="q" horiz-adv-x="1062" d="M119 291V645Q119 736 137 800T202 915T333 992T543 1018Q733 1018 899 979V-403L727 -428V49Q671 19 587 0T412 -20Q119 -20 119 291ZM727 207V852Q632 866 530 866Q456 866 408 852T334 808T300 742T291
651V285Q291 206 329 169T453 131Q513 131 589 154T727 207Z" />
<glyph unicode="r" glyph-name="r" horiz-adv-x="630" d="M598 1018L621 860Q503 804 336 688V0H164V997H313L324 858Q449 956 598 1018Z" />
<glyph unicode="s" glyph-name="s" horiz-adv-x="899" d="M784 268Q784 191 770 141T719 52T614 -3T440 -20Q363 -20 273 -5T123 33L145 168Q286 127 430 127Q546 127 580 153T614 262Q614 293 613 308T604 342T586 368T549 388T492 408T406 430Q342 446 300 460T226
495T177 535T150 589T138 658T135 750Q135 892 211 955T479 1018Q637 1018 762 983L750 842Q603 870 473 870Q400 870 364 857T316 819T305 745Q305 712 306 697T312 661T326 633T356 612T404 592T475 573Q551 554 598 540T682 506T738 469T767 419T781 355T784
268Z" />
<glyph unicode="t" glyph-name="t" horiz-adv-x="755" d="M662 150L684 16Q584 -20 475 -20Q346 -20 287 32T227 207V854H51V997H227V1243L399 1268V997H682L668 854H399V236Q399 175 418 150T502 125Q568 125 662 150Z" />
<glyph unicode="u" glyph-name="u" horiz-adv-x="1091" d="M154 997H326V236Q326 187 349 165T422 143Q478 143 577 173T756 244V997H928V0H788L772 86Q683 43 569 12T371 -20Q154 -20 154 233V997Z" />
<glyph unicode="v" glyph-name="v" horiz-adv-x="921" d="M461 141L735 997H905L575 0H346L16 997H186L461 141Z" />
<glyph unicode="w" glyph-name="w" horiz-adv-x="1425" d="M1176 0H954L713 846L471 0H250L37 997H201L367 170L608 997H817L1059 170L1225 997H1389L1176 0Z" />
<glyph unicode="x" glyph-name="x" horiz-adv-x="917" d="M219 0H37L365 502L43 997H221L459 631L696 997H874L551 502L881 0H700L459 371L219 0Z" />
<glyph unicode="y" glyph-name="y" horiz-adv-x="917" d="M272 -403L412 0H340L16 997H186L459 137L735 997H905L575 0L434 -403H272Z" />
<glyph unicode="z" glyph-name="z" horiz-adv-x="940" d="M133 858V997H821L819 858L311 139H827V0H123V139L631 858H133Z" />
<glyph unicode="{" glyph-name="braceleft" horiz-adv-x="641" d="M160 594H113V733H160Q208 733 227 754T246 819V1348Q246 1494 298 1556T487 1618H621V1473H498Q455 1473 437 1454T418 1391V897Q418 894 418 886Q418 861 418 846T414 801T402 752T379 711T339
678T281 664Q314 662 339 651T378 617T402 576T414 527T417 482T418 441Q418 433 418 430V-63Q418 -108 436 -126T498 -145H621V-291H487Q351 -291 299 -229T246 -20V508Q246 552 227 573T160 594Z" />
<glyph unicode="|" glyph-name="bar" horiz-adv-x="526" d="M322 1618V-430H205V1618H322Z" />
<glyph unicode="}" glyph-name="braceright" horiz-adv-x="641" d="M528 594H481Q433 594 414 573T395 508V-20Q395 -167 343 -229T154 -291H20V-145H143Q187 -145 205 -127T223 -63V430Q223 433 223 441Q223 466 223 481T227 526T239 576T262 617T302 650T360
664Q327 666 302 677T263 711T239 751T227 800T224 845T223 886Q223 894 223 897V1391Q223 1435 205 1454T143 1473H20V1618H154Q290 1618 342 1556T395 1348V819Q395 775 414 754T481 733H528V594Z" />
<glyph unicode="~" glyph-name="asciitilde" horiz-adv-x="1024" d="M823 707L932 657Q851 416 672 416Q622 416 574 439T494 490T423 541T352 565Q296 565 266 529T201 410L92 463Q137 581 197 641T354 702Q400 702 447 679T527 627T600 575T674 551Q700 551
721 561T756 582T784 619T804 660T823 707Z" />
</font>
</defs>
</svg>
